<?xml version="1.0" encoding="UTF-8" standalone="no"?>
<svg
   xmlns:dc="http://purl.org/dc/elements/1.1/"
   xmlns:cc="http://creativecommons.org/ns#"
   xmlns:rdf="http://www.w3.org/1999/02/22-rdf-syntax-ns#"
   xmlns:svg="http://www.w3.org/2000/svg"
   xmlns="http://www.w3.org/2000/svg"
   xmlns:sodipodi="http://sodipodi.sourceforge.net/DTD/sodipodi-0.dtd"
   xmlns:inkscape="http://www.inkscape.org/namespaces/inkscape"
   viewBox="0 0 30 30"
   version="1.1"
   id="svg10"
   sodipodi:docname="draft_quality.svg"
   inkscape:version="0.92.0 r15299">
  <metadata
     id="metadata16">
    <rdf:RDF>
      <cc:Work
         rdf:about="">
        <dc:format>image/svg+xml</dc:format>
        <dc:type
           rdf:resource="http://purl.org/dc/dcmitype/StillImage" />
        <dc:title></dc:title>
      </cc:Work>
    </rdf:RDF>
  </metadata>
  <defs
     id="defs14" />
  <sodipodi:namedview
     pagecolor="#ffffff"
     bordercolor="#666666"
     borderopacity="1"
     objecttolerance="10"
     gridtolerance="10"
     guidetolerance="10"
     inkscape:pageopacity="0"
     inkscape:pageshadow="2"
     inkscape:window-width="1920"
     inkscape:window-height="1017"
     id="namedview12"
     showgrid="false"
     inkscape:zoom="10.207893"
     inkscape:cx="3.1557558"
     inkscape:cy="17.288135"
     inkscape:window-x="-8"
     inkscape:window-y="-8"
     inkscape:window-maximized="1"
     inkscape:current-layer="svg10" />
  <g
     id="g6">
    <path
       inkscape:connector-curvature="0"
       id="path2"
       d="M 26.975,14.499 C 26.9,12.679 26.427,10.963 25.629,9.439 l 0.014,-0.008 -0.5,-0.865 -0.019,0.011 C 24.177,7.087 22.913,5.822 21.423,4.875 L 21.434,4.856 20.567,4.356 20.559,4.37 C 19.037,3.572 17.321,3.1 15.5,3.025 V 3 h -1 V 3.025 C 12.68,3.1 10.964,3.572 9.44,4.371 L 9.433,4.357 8.568,4.857 8.578,4.875 C 7.088,5.822 5.824,7.087 4.877,8.577 l -0.02,-0.011 -0.5,0.865 0.014,0.008 c -0.798,1.523 -1.27,3.239 -1.346,5.06 H 3 v 1 h 0.025 c 0.075,1.82 0.547,3.537 1.345,5.06 l -0.013,0.008 0.5,0.865 0.017,-0.01 C 7.003,24.771 10.737,27 15,27 c 4.263,0 7.996,-2.229 10.125,-5.577 l 0.018,0.01 0.5,-0.867 -0.013,-0.008 c 0.798,-1.522 1.27,-3.238 1.345,-5.059 H 27 v -1 z m -2.216,5.557 -0.503,0.865 C 22.298,23.971 18.885,26 15,26 11.114,26 7.701,23.97 5.744,20.92 L 5.241,20.057 C 4.525,18.681 4.099,17.136 4.025,15.499 h 2.976 v -1 H 4.025 C 4.099,12.862 4.526,11.317 5.242,9.942 l 2.58,1.489 0.5,-0.865 L 5.745,9.078 C 6.603,7.741 7.741,6.602 9.079,5.744 l 1.488,2.577 0.865,-0.5 -1.489,-2.58 C 11.318,4.526 12.863,4.099 14.5,4.025 V 7 h 1 V 4.025 c 1.637,0.074 3.181,0.5 4.556,1.216 l -1.488,2.579 0.867,0.5 1.485,-2.576 c 1.338,0.859 2.477,1.997 3.335,3.335 l -2.575,1.488 0.5,0.865 2.577,-1.49 c 0.716,1.376 1.143,2.92 1.217,4.557 l -2.973,0.002 v 1 l 2.973,-0.002 c -0.074,1.637 -0.499,3.182 -1.215,4.557 z" />
  </g>
  <path
     id="path3728"
     style="stroke-width:0.7853263"
     sodipodi:type="arc"
     sodipodi:cx="15"
     sodipodi:cy="15.391853"
     sodipodi:rx="7"
     sodipodi:ry="7.3918538"
     sodipodi:start="3.1415927"
     sodipodi:end="4.3633231"
     d="M 8,15.391853 A 7,7.3918538 0 0 1 12.605859,8.4457829 L 15,15.391853 Z" />
</svg>
