<?xml version="1.0" encoding="iso-8859-1"?>
<!-- Generator: Adobe Illustrator 19.0.0, SVG Export Plug-In . SVG Version: 6.00 Build 0)  -->
<svg version="1.1" id="Layer_1" xmlns="http://www.w3.org/2000/svg" xmlns:xlink="http://www.w3.org/1999/xlink" x="0px" y="0px"
	 viewBox="0 0 511.999 511.999" style="enable-background:new 0 0 511.999 511.999;" xml:space="preserve">
<g>
	<g>
		<path d="M93.858,306.66c-5.344-7.596-15.805-9.389-23.389-4.066l-63.34,44.582c-7.585,5.334-9.399,15.81-4.066,23.389
			c5.324,7.568,15.782,9.413,23.391,4.067l63.339-44.583C97.377,324.716,99.191,314.24,93.858,306.66z"/>
	</g>
</g>
<g>
	<g>
		<path d="M205.341,418.144c-7.585-5.344-18.055-3.524-23.389,4.066l-44.583,63.339c-5.334,7.579-3.52,18.056,4.066,23.389
			c7.557,5.323,18.042,3.537,23.389-4.066l44.583-63.339C214.741,433.954,212.927,423.477,205.341,418.144z"/>
	</g>
</g>
<g>
	<g>
		<path d="M138.036,373.965c-6.557-6.558-17.182-6.558-23.74,0L4.921,483.342c-6.558,6.552-6.558,17.187,0,23.74
			c6.557,6.557,17.181,6.557,23.739-0.001l109.376-109.376C144.593,391.153,144.593,380.518,138.036,373.965z"/>
	</g>
</g>
<g>
	<g>
		<path d="M457.867,54.131c-68.541-68.551-177.814-72.374-250.914-9.294c-18.59-11.774-40.112-18.173-62.653-18.173
			c-31.38,0-60.89,12.225-83.089,34.418c-19.676,19.665-19.706,51.541,0,71.225l53.596,53.596
			c-21.544,32.574-17.99,76.98,10.671,105.645l94.97,94.97c15.859,15.859,36.943,24.587,59.36,24.587
			c16.714,0,32.68-4.866,46.293-13.907l53.595,53.594c19.665,19.676,51.541,19.689,71.219,0
			c39.506-39.506,44.862-100.341,16.239-145.734C530.224,231.986,526.437,122.681,457.867,54.131z M196.707,149.098
			c-6.555,6.556-17.186,6.556-23.742,0c-6.555-6.556-6.555-17.186,0-23.742c6.556-6.556,17.187-6.556,23.742,0
			C203.264,131.912,203.264,142.542,196.707,149.098z M291.676,244.067c-6.556,6.556-17.187,6.556-23.742,0
			c-6.556-6.555-6.556-17.186,0-23.742c6.555-6.556,17.186-6.556,23.742,0C298.231,226.881,298.231,237.511,291.676,244.067z
			 M386.645,339.036c-6.556,6.556-17.186,6.556-23.741,0c-6.557-6.556-6.557-17.186,0-23.742c6.555-6.556,17.185-6.556,23.741,0
			C393.202,321.851,393.202,332.48,386.645,339.036z M445.296,278.979l-23.98-23.978c34.818-46.424,30.663-111.793-10.93-153.386
			c-6.557-6.557-17.182-6.557-23.74,0c-6.557,6.558-6.557,17.187,0,23.74c28.962,28.962,32.014,73.452,10.673,105.65L233.016,66.706
			c59.288-47.544,145.98-43.965,201.11,11.164C489.144,132.888,492.94,219.558,445.296,278.979z"/>
	</g>
</g>
<g>
</g>
<g>
</g>
<g>
</g>
<g>
</g>
<g>
</g>
<g>
</g>
<g>
</g>
<g>
</g>
<g>
</g>
<g>
</g>
<g>
</g>
<g>
</g>
<g>
</g>
<g>
</g>
<g>
</g>
</svg>
